<mxfile host="app.diagrams.net" modified="2023-05-11T05:11:41.089Z" agent="Mozilla/5.0 (Macintosh; Intel Mac OS X 10_15_7) AppleWebKit/605.1.15 (KHTML, like Gecko) Version/16.4 Safari/605.1.15" etag="MvVSjL6LnoTeVykQONls" version="21.2.9" type="github">
  <diagram id="C5RBs43oDa-KdzZeNtuy" name="Page-1">
    <mxGraphModel dx="954" dy="624" grid="1" gridSize="10" guides="1" tooltips="1" connect="1" arrows="1" fold="1" page="1" pageScale="1" pageWidth="827" pageHeight="1169" math="0" shadow="0">
      <root>
        <mxCell id="WIyWlLk6GJQsqaUBKTNV-0" />
        <mxCell id="WIyWlLk6GJQsqaUBKTNV-1" parent="WIyWlLk6GJQsqaUBKTNV-0" />
        <mxCell id="jdJi_D4wXLfLVCjsjEQk-3" value="" style="edgeStyle=orthogonalEdgeStyle;rounded=0;orthogonalLoop=1;jettySize=auto;html=1;" edge="1" parent="WIyWlLk6GJQsqaUBKTNV-1" source="jdJi_D4wXLfLVCjsjEQk-0" target="jdJi_D4wXLfLVCjsjEQk-2">
          <mxGeometry relative="1" as="geometry" />
        </mxCell>
        <mxCell id="jdJi_D4wXLfLVCjsjEQk-0" value="เรียงงบ" style="ellipse;whiteSpace=wrap;html=1;" vertex="1" parent="WIyWlLk6GJQsqaUBKTNV-1">
          <mxGeometry x="212.5" y="10" width="120" height="80" as="geometry" />
        </mxCell>
        <mxCell id="jdJi_D4wXLfLVCjsjEQk-2" value="ลิส Folder ทั้งหมดที่ Download มา โดยเรียงจากน้อยไปมาก เก็บไว้ในตัวแปรลิส" style="rounded=0;whiteSpace=wrap;html=1;" vertex="1" parent="WIyWlLk6GJQsqaUBKTNV-1">
          <mxGeometry x="205" y="140" width="135" height="100" as="geometry" />
        </mxCell>
      </root>
    </mxGraphModel>
  </diagram>
</mxfile>
